<svg width="1311" height="712" viewBox="0 0 1311 712" fill="none" xmlns="http://www.w3.org/2000/svg">
<mask id="mask0_2104_10366" style="mask-type:alpha" maskUnits="userSpaceOnUse" x="0" y="0" width="1311" height="712">
<rect width="1311" height="712" fill="#F2EFE8"/>
</mask>
<g mask="url(#mask0_2104_10366)">
<rect width="149" height="130" rx="9.73592" transform="matrix(1 -1.02538e-07 -7.61914e-08 -1 1219 717)" fill="url(#paint0_linear_2104_10366)"/>
<path d="M1219 744.425C1144.82 623.818 998.334 551.819 857.464 566.722C774.607 575.489 697.145 611.227 615.688 628.742C534.231 646.257 439.409 641.407 380.911 582.129C355.544 556.426 339.566 522.926 316.047 495.507C276.663 449.565 215.719 422.892 155.205 425.131C94.7097 427.369 35.8941 458.444 0 507.183V961.019H1219V744.425Z" fill="url(#paint1_linear_2104_10366)"/>
<rect width="362" height="283" rx="30" transform="matrix(-1 0 0 1 1221 468)" fill="url(#paint2_linear_2104_10366)"/>
<path opacity="0.4" d="M1123 628.5C1123 582.937 1086.06 546 1040.5 546V546C994.937 546 958 582.937 958 628.5V719H1123V628.5Z" fill="url(#paint3_linear_2104_10366)"/>
</g>
<rect x="319" y="290" width="237" height="77" rx="12.5926" transform="rotate(90 319 290)" fill="url(#paint4_linear_2104_10366)"/>
<rect width="256.889" height="76.3951" rx="12.5926" transform="matrix(8.514e-08 -1 -1 -2.24417e-08 204.611 333.889)" fill="url(#paint5_linear_2104_10366)"/>
<defs>
<linearGradient id="paint0_linear_2104_10366" x1="43.4583" y1="-1.74695e-05" x2="182.838" y2="50.791" gradientUnits="userSpaceOnUse">
<stop stop-color="#EF8451"/>
<stop offset="1" stop-color="#EF8451" stop-opacity="0"/>
</linearGradient>
<linearGradient id="paint1_linear_2104_10366" x1="-33.5" y1="448.5" x2="1219" y2="711.5" gradientUnits="userSpaceOnUse">
<stop stop-color="#2A7961"/>
<stop offset="1" stop-color="#F2EFE8"/>
</linearGradient>
<linearGradient id="paint2_linear_2104_10366" x1="50.7406" y1="-2.44036e-06" x2="298.125" y2="387.687" gradientUnits="userSpaceOnUse">
<stop stop-color="#EF8451"/>
<stop offset="1" stop-color="#F2EFE8"/>
</linearGradient>
<linearGradient id="paint3_linear_2104_10366" x1="1040.5" y1="546" x2="1040.5" y2="719" gradientUnits="userSpaceOnUse">
<stop offset="0.0001" stop-color="#F2EFE8"/>
<stop offset="1" stop-color="#F2EFE8" stop-opacity="0"/>
</linearGradient>
<linearGradient id="paint4_linear_2104_10366" x1="562.903" y1="317.323" x2="290.698" y2="345.26" gradientUnits="userSpaceOnUse">
<stop stop-color="#EDCB50"/>
<stop offset="1" stop-color="#EDCB50" stop-opacity="0"/>
</linearGradient>
<linearGradient id="paint5_linear_2104_10366" x1="264.371" y1="27.1079" x2="-30.0833" y2="60.1246" gradientUnits="userSpaceOnUse">
<stop stop-color="#EDCB50"/>
<stop offset="1" stop-color="#EDCB50" stop-opacity="0"/>
</linearGradient>
</defs>
</svg>
